# xmcd
#
# Track frame offsets: 
#        150
#        12524
#        22999
#        35881
#        47459
#        61230
#        72393
#        85889
#        100728
#        115535
#        129222
#        143899
#        158460
#        169893
#        181538
#        195795
#        209357
#
# Disc length: 2973 seconds
#
# Revision: 0
# Processed by: cddbd v1.5.2PL0 Copyright (c) Steve Scherf et al.
# Submitted via: ExactAudioCopy v1.3
#
DISCID=d10b9b11
DTITLE=ウッドペッカー - 俺のせいではないさ＋５
DYEAR=2014
DGENRE=Pop
TTITLE0=君の故郷へいこう
TTITLE1=ハロー・グリーン
TTITLE2=俺のせいではないさ
TTITLE3=風吹く街
TTITLE4=夢の幻想
TTITLE5=大地の花嫁
TTITLE6=プリッチャー・マン
TTITLE7=ベイビー・イッツ・ユー
TTITLE8=ウォーク・オン・バイ
TTITLE9=タイム・アンド・ラブ
TTITLE10=ストーンド・ソウル・ピクニック
TTITLE11=デイ・アフター・デイ
TTITLE12=恋はワキ・ワキ
TTITLE13=夕ぐれの渚
TTITLE14=消えた友に
TTITLE15=戦争を知らない子供たち
TTITLE16=あの素晴らしい愛をもう一度
EXTD=
EXTT0=
EXTT1=
EXTT2=
EXTT3=
EXTT4=
EXTT5=
EXTT6=
EXTT7=
EXTT8=
EXTT9=
EXTT10=
EXTT11=
EXTT12=
EXTT13=
EXTT14=
EXTT15=
EXTT16=
PLAYORDER=
